<svg width="25" height="32" viewBox="0 0 25 32" fill="none" xmlns="http://www.w3.org/2000/svg">
<path d="M0.833021 26.7806C0.763602 26.7806 0.694184 26.7714 0.624766 26.7483C0.360976 26.6651 0.171232 26.4342 0.143465 26.1617C0.138837 26.1062 0 24.8499 0 24.0924V4.87298C0 2.18476 2.18899 0 4.88243 0H19.2243C21.9177 0 24.1067 2.18476 24.1067 4.87298V18.4434C24.1067 21.1316 21.9177 23.3164 19.2243 23.3164H6.86779C5.26192 23.3164 3.70231 23.9769 2.59162 25.1316L1.3606 26.5404C1.22639 26.6928 1.03665 26.776 0.837649 26.776L0.833021 26.7806ZM4.88243 1.38568C2.9526 1.38568 1.38837 2.9515 1.38837 4.87298V24.0924C1.38837 24.1848 1.38837 24.2864 1.393 24.3926L1.56423 24.1986C2.96185 22.7529 4.88706 21.9353 6.86317 21.9353H19.2243C21.1541 21.9353 22.7183 20.3695 22.7183 18.448V4.87298C22.7183 2.94688 21.1495 1.38568 19.2243 1.38568H4.88243Z" fill="#292B38"/>
<path d="M9.26038 28.2033L7.27038 26.9053L4.91016 28.2033V22.9238H9.26038V28.2033Z" fill="#292B38"/>
<path d="M10.9357 31.9955H7.15009C3.20713 31.9955 0 29.1826 0 25.723V24.0925C0 23.7091 0.310069 23.3997 0.694184 23.3997C1.0783 23.3997 1.38837 23.7091 1.38837 24.0925V25.723C1.38837 28.4204 3.97536 30.6098 7.15009 30.6098H10.9357C13.8235 30.6098 16.2208 28.7992 16.6373 26.4482L13.1432 26.6006C12.7452 26.6144 12.4351 26.3188 12.4213 25.9401C12.4028 25.5567 12.7036 25.2334 13.0831 25.2195L17.3685 25.0348C17.5629 25.0255 17.7433 25.0948 17.8776 25.2288C18.0164 25.3581 18.0904 25.5382 18.0904 25.7276C18.0904 29.1872 14.8833 32.0001 10.9403 32.0001L10.9357 31.9955Z" fill="#292B38"/>
<path d="M4.22989 15.0025C3.84577 15.0025 3.53571 14.6931 3.53571 14.3097V7.16882C3.53571 5.39053 4.98424 3.94019 6.7706 3.94019H14.8879C15.272 3.94019 15.5821 4.24965 15.5821 4.63303C15.5821 5.0164 15.272 5.32587 14.8879 5.32587H6.7706C5.75247 5.32587 4.92407 6.15266 4.92407 7.16882V14.3097C4.92407 14.6931 4.614 15.0025 4.22989 15.0025Z" fill="#292B38"/>
</svg>
