<svg width="372" height="424" viewBox="0 0 372 424" fill="none" xmlns="http://www.w3.org/2000/svg">
<path d="M244.121 80.7933C243.994 87.272 243.677 106.602 244.184 111.472L244.121 80.7933ZM244.121 80.7933C247.208 78.3373 254.018 72.3032 254.23 66.4174C254.505 58.7953 248.012 58.3931 248.012 58.3931L244.121 80.7933ZM188.712 40.8413C188.712 40.8413 189.663 69.3603 191.736 80.1582C193.808 90.956 198.821 98.1758 203.283 100.462C207.745 102.749 213.836 102.241 213.836 102.241L213.328 109.905" stroke="black" stroke-width="1.45033" stroke-linecap="round" stroke-linejoin="round"/>
<path fill-rule="evenodd" clip-rule="evenodd" d="M55.4972 0C55.4972 0 69.0957 38.7664 73.0716 53.7564C77.0475 68.7463 80.7062 84.1809 80.7062 84.1809L32.1281 94.2801L1.42044 35.6329L55.4972 0Z" fill="#DE7773"/>
<path fill-rule="evenodd" clip-rule="evenodd" d="M60.6997 2.7737L58.5003 4.04403L57.7389 1.88446L1.42044 35.633L29.3788 113.928L86.226 87.124L65.7542 20.4737C66.727 19.7327 67.5095 19.1187 67.5095 19.1187L63.5759 4.0652L61.3765 5.12382L60.6997 2.7737Z" fill="white"/>
<path fill-rule="evenodd" clip-rule="evenodd" d="M63.3011 131.523C63.3011 131.523 57.8025 118.057 52.5999 111.028C51.3099 109.292 50.1467 107.535 49.1316 105.904L49.4488 105.777L49.7449 105.629L50.041 105.502L50.3159 105.396L50.3371 105.375L50.6543 105.248L50.9504 105.121L51.2676 104.994L51.5637 104.846L51.6694 104.803L51.8809 104.719L52.177 104.592L52.4942 104.443L52.7903 104.316L53.0441 104.211L53.1075 104.189L53.4247 104.041L53.7208 103.914L54.038 103.787L54.3553 103.639L54.4187 103.618L54.6725 103.512L55.2858 103.237L55.603 103.11L55.8145 103.004L55.9203 102.961L56.2375 102.834L56.5547 102.686L58.6273 101.797L58.7753 101.733L59.0925 101.585L59.4098 101.458L59.727 101.31L60.0231 101.183H60.0442L60.3615 101.035L60.6787 100.908L60.9959 100.759L61.3131 100.632L61.44 100.569L61.6304 100.484L61.9264 100.357L62.2437 100.209L62.5609 100.082L62.8358 99.9549L62.8781 99.9337L63.1954 99.8067L63.5126 99.6585L63.8298 99.5314L64.147 99.4044L64.2316 99.3621L64.4643 99.2562L64.7603 99.1292L65.0776 98.981L65.3948 98.8539L65.6063 98.7481L66.0081 98.5787L66.3253 98.4305L66.6426 98.3034L66.9386 98.1764L66.9809 98.1552L67.2559 98.0282L67.5519 97.9012L67.8692 97.7741L68.1653 97.6259L68.3556 97.5624L68.4825 97.4989L68.7786 97.3719L69.0958 97.2448C72.4373 95.7628 75.6095 94.3654 78.4434 93.1374C78.5703 96.4826 78.6549 100.167 78.4223 101.543C77.957 104.295 75.5249 112.404 77.809 117.613C80.093 122.8 63.3011 131.523 63.3011 131.523Z" fill="white"/>
<path d="M78.4434 93.1374C78.5703 96.4826 78.6549 100.167 78.4223 101.543C77.957 104.295 75.5249 112.404 77.809 117.613C80.093 122.8 63.3011 131.523 63.3011 131.523C63.3011 131.523 57.8025 118.057 52.5999 111.028C51.3099 109.292 50.1467 107.535 49.1316 105.904" stroke="black" stroke-width="1.45033" stroke-linecap="round" stroke-linejoin="round"/>
<path fill-rule="evenodd" clip-rule="evenodd" d="M54.1016 400.516C54.1016 400.516 67.256 422.217 79.6278 422.217C91.9997 422.217 94.8125 413.96 96.4198 409.768C98.027 405.555 98.3443 401.722 98.3443 401.722L85.0419 402.485C85.0419 402.485 82.6098 413.579 78.4012 414.659C74.1927 415.717 70.8301 410.827 67.7847 404.856C64.7181 398.907 54.1016 400.516 54.1016 400.516Z" fill="#DE7773"/>
<path fill-rule="evenodd" clip-rule="evenodd" d="M158.596 294.422C158.596 294.422 159.505 335.411 160.88 361.707C162.255 388.024 168.514 422.429 168.514 422.429H273.327C276.393 386.309 286.481 306.49 283.562 274.837C282.378 262.092 158.596 294.422 158.596 294.422Z" fill="black" stroke="black" stroke-width="1.45033" stroke-linecap="round" stroke-linejoin="round"/>
<path fill-rule="evenodd" clip-rule="evenodd" d="M161.007 131.671C155.043 139.017 125.33 176.111 125.33 176.111C125.33 176.111 100.565 132.899 94.8546 124.26C89.1234 115.622 85.5281 110.562 85.5281 110.562C85.5281 110.562 76.963 115.834 69.6456 120.809C62.3071 125.785 57.8659 130.443 57.8659 130.443C57.8659 130.443 83.1595 219.769 116.468 224.977C131.378 227.306 148.656 216.889 160.986 206.896C160.034 225.654 154.663 289.87 156.968 295.862C158.808 300.604 165.998 304.733 197.763 306.723C229.549 308.713 272.164 292.347 276.753 288.981C281.342 285.614 285.995 280.808 285.53 270.031C285.085 259.234 291.832 196.458 291.832 196.458C291.832 196.458 304.056 171.517 295.787 143.697C291.049 127.69 272.587 119.221 257.719 114.923L257.677 114.902C256.408 114.521 255.097 114.161 253.786 113.844C244.628 111.515 237.649 110.795 237.649 110.795L236.063 111.134C217.812 109.673 200.872 111.621 200.872 111.621C187.549 112.235 169.467 121.233 161.007 131.671Z" fill="#D7F0F7"/>
<path fill-rule="evenodd" clip-rule="evenodd" d="M146.076 261.774C146.076 261.774 161.958 282.883 166.251 335.496C170.523 388.109 158.151 418.872 142.713 421.773C127.296 424.674 124.694 416.713 121.184 412.902C117.652 409.07 113.084 399.754 113.084 399.754L124.081 396.684C124.081 396.684 130.637 416.565 137.066 415.654C143.474 414.723 151.891 389.803 151.13 358.743C150.348 327.705 138.589 300.774 138.589 300.774L146.076 261.774Z" fill="#DE7773"/>
<path fill-rule="evenodd" clip-rule="evenodd" d="M76.7718 242.401C76.7718 242.401 114.035 233.847 133.598 245.153C153.16 256.481 151.32 272.085 149.48 291.351C147.662 310.618 141.444 332.807 141.444 332.807L91.4277 349.003L47.4388 334.331L59.3454 270.094C59.3454 270.094 62.708 247.44 76.7718 242.401Z" fill="black"/>
<path fill-rule="evenodd" clip-rule="evenodd" d="M89.2928 245.005C89.2928 245.005 115.876 243.163 127.635 249.134C139.394 255.104 135.735 263.51 132.076 274.519C128.396 285.529 107.925 339.518 107.925 339.518L55.6878 332.785L69.1171 264.59C69.1171 264.59 71.2531 247.609 89.2928 245.005Z" fill="black" stroke="black" stroke-width="0.580133" stroke-linecap="round" stroke-linejoin="round"/>
<path fill-rule="evenodd" clip-rule="evenodd" d="M29.3788 113.928C30.4362 114.394 89.8847 88.0976 89.8847 88.0976L67.002 5.6528C67.002 5.6528 19.3755 26.444 1.42044 35.6327L29.3788 113.928Z" fill="#DE7773"/>
<path fill-rule="evenodd" clip-rule="evenodd" d="M15.4837 40.9042L22.0397 60.785C22.0397 60.785 48.2428 52.2949 55.6659 49.479C63.0679 46.6419 66.3459 45.0328 66.3459 45.0328L59.7899 22.7808C59.7899 22.7808 31.5143 33.9386 15.4837 40.9042Z" fill="white"/>
<path fill-rule="evenodd" clip-rule="evenodd" d="M341.15 272.36C341.15 272.36 337.554 270.751 335.714 274.117C333.896 277.484 317.146 307.464 317.146 307.464L308.856 321.395C306.804 322.792 305.62 323.597 305.62 323.597L304.076 327.895C304.076 327.895 304.584 329.673 306.297 331.325C306.487 331.494 306.678 331.664 306.91 331.812C310.463 334.268 332.69 344.663 332.69 344.663C332.69 344.663 337.364 348.03 340.875 342.229C344.385 336.406 369.827 291.055 369.827 291.055C369.827 291.055 371.477 288.493 370.863 286.292C370.863 286.292 370.313 283.814 368.706 282.756C368.579 282.671 368.072 282.883 367.226 283.306C360.564 280.384 341.15 272.36 341.15 272.36Z" fill="white" stroke="#DE7773" stroke-width="1.45033" stroke-linecap="round" stroke-linejoin="round"/>
<path fill-rule="evenodd" clip-rule="evenodd" d="M286.1 58.4993C286.1 58.4993 281.088 54.2437 280.454 51.0467C279.798 47.8285 283.499 45.563 286.143 46.9816C288.765 48.4001 291.451 53.9896 291.451 53.9896L286.1 58.4993Z" fill="black"/>
<path fill-rule="evenodd" clip-rule="evenodd" d="M312.938 91.7394L317.316 96.0586L317.76 95.5081L315.243 90.0668L312.938 91.7394Z" fill="black"/>
<path d="M176.297 139.292C176.297 139.292 170.502 160.253 167.901 172.025C165.3 183.796 163.925 191.037 163.925 191.037" stroke="black" stroke-width="1.45033" stroke-linecap="round" stroke-linejoin="round"/>
<path d="M60.7414 108.063C60.7414 108.063 67.2128 99.6999 68.9259 97.3075" stroke="black" stroke-width="1.45033" stroke-linecap="round" stroke-linejoin="round"/>
<path d="M204.467 111.281C208.633 138.721 250.317 128.219 249.83 112.89" stroke="#6CA3B7" stroke-width="1.45033" stroke-linecap="round" stroke-linejoin="round"/>
<path d="M195.204 330.605C195.204 330.605 198.863 340.386 202.077 344.981C205.292 349.575 207.872 353.238 207.872 353.238L216.924 420.375" stroke="white" stroke-width="1.45033" stroke-linecap="round" stroke-linejoin="round"/>
<path d="M262.88 317.901L249.429 337.189" stroke="white" stroke-width="1.45033" stroke-linecap="round" stroke-linejoin="round"/>
<path d="M266.77 329.377C266.77 329.377 260.595 335.347 259.051 337.253C257.528 339.179 254.779 341.932 254.779 341.932" stroke="white" stroke-width="1.45033" stroke-linecap="round" stroke-linejoin="round"/>
<path d="M60.1074 137.768C60.1074 137.768 72.7542 127.647 78.8662 123.349C84.9781 119.073 89.3981 116.151 89.3981 116.151" stroke="#6CA3B7" stroke-width="1.45033" stroke-linecap="round" stroke-linejoin="round"/>
<path fill-rule="evenodd" clip-rule="evenodd" d="M162.677 190.55C162.677 190.55 146.414 182.293 140.514 179.541C134.634 176.788 133.112 201.962 130.976 211.447C128.84 220.911 122.114 236.219 122.114 236.219L129.368 234.525C129.368 234.525 132.266 235.457 134.952 234.991C145.97 233.106 151.299 228.893 157.792 219.514L162.614 221.419L168.726 192.858L162.677 190.55Z" fill="white" stroke="black" stroke-width="1.45033" stroke-linecap="round" stroke-linejoin="round"/>
<path fill-rule="evenodd" clip-rule="evenodd" d="M74.4466 189.365L126.409 190.677C127.572 189.576 128.227 188.983 128.227 188.983L136.052 188.306C136.052 188.306 140.113 191.037 140.197 193.387C140.43 194.022 140.493 194.785 140.261 195.759C139.034 200.882 108.517 290.97 108.517 290.97C108.517 290.97 106.677 295.247 102.638 294.929C98.5771 294.633 43.887 288.811 43.887 288.811C43.887 288.811 42.0682 288.768 40.4187 288.027C40.4187 288.027 40.3341 288.006 40.2072 287.921C40.0591 287.858 39.9322 287.794 39.8054 287.71C38.6633 287.053 36.2947 285.36 35.1104 282.12C34.8355 281.379 37.331 278.203 41.6876 273.44C49.4914 251.442 67.954 197.283 67.954 197.283C67.954 197.283 69.794 188.475 74.4466 189.365Z" fill="#DE7773"/>
<path d="M140.112 213.84C140.112 213.84 136.306 222.542 133.937 226.755C131.568 230.968 129.369 234.525 129.369 234.525" stroke="black" stroke-width="1.45033" stroke-linecap="round" stroke-linejoin="round"/>
<path d="M145.696 216.359C145.696 216.359 143.01 223.473 139.816 228.216C136.602 232.958 134.022 235.097 134.022 235.097" stroke="black" stroke-width="1.45033" stroke-linecap="round" stroke-linejoin="round"/>
<path d="M151.575 218.265C151.575 218.265 149.29 223.388 146.457 227.072C143.623 230.735 140.387 233.72 140.387 233.72" stroke="black" stroke-width="1.45033" stroke-linecap="round" stroke-linejoin="round"/>
<path d="M168.092 231.667C168.092 231.667 170.757 222.097 173.273 212.062C175.79 202.047 177.207 192.964 177.207 192.964" stroke="#6CA3B7" stroke-width="1.45033" stroke-linecap="round" stroke-linejoin="round"/>
<path fill-rule="evenodd" clip-rule="evenodd" d="M188.712 40.8414C188.712 40.8414 189.663 69.3604 191.736 80.1583C193.808 90.9561 198.821 98.1759 203.283 100.462C207.745 102.749 213.836 102.241 213.836 102.241L213.328 109.905L209.543 110.943C211.552 120.873 218.785 124.514 228.746 123.498C239.637 122.376 244.544 116.723 246.764 112.255L244.184 111.472C243.677 106.602 243.994 87.2722 244.121 80.7935C247.208 78.3375 254.018 72.3034 254.23 66.4175C254.505 58.7955 248.012 58.3932 248.012 58.3932C248.012 58.3932 254.505 27.9475 222.295 25.8514C190.086 23.7766 188.712 40.8414 188.712 40.8414Z" fill="white"/>
<path fill-rule="evenodd" clip-rule="evenodd" d="M237.269 60.468C237.459 61.9712 237.607 63.305 237.777 64.279C238.474 68.1535 240.336 66.4809 241.097 63.792C241.858 61.082 244.354 58.88 248.012 58.3931C248.012 58.3931 254.505 58.7954 254.23 66.4174C253.955 74.0182 244.121 80.7933 244.121 80.7933C244.121 80.7933 244.163 86.5522 243.952 92.7768C250.423 87.9284 257.847 77.1729 261.78 59.8328C265.714 42.5139 262.605 34.9342 254.865 25.5126C247.124 16.1121 238.411 15.1382 224.855 15.6886C211.299 16.2391 195.141 16.9378 195.141 16.9378C180.295 18.1446 173.316 15.244 171.793 19.8808C170.292 24.5175 177.672 27.2064 177.672 27.2064C177.672 27.2064 169.044 29.2812 169.107 34.0026C169.171 38.7029 181.627 38.8299 181.627 38.8299C181.627 38.8299 175.431 43.7842 177.715 46.2826C179.999 48.7597 188.966 47.4894 188.966 47.4894C188.966 47.4894 192.646 46.6001 199.181 45.0969C201.634 44.5464 204.595 43.5725 207.809 42.6198C207.555 43.5513 207.661 44.5676 208.655 45.5204C211.383 48.1457 224.474 42.1328 224.474 42.1328C224.474 42.1328 227.456 48.3151 234.351 45.7956C236.402 49.3949 237.142 54.4762 237.269 60.468Z" fill="black" stroke="black" stroke-width="0.580133" stroke-linecap="round" stroke-linejoin="round"/>
<path d="M219.334 68.8101C220.514 68.8101 221.47 67.4546 221.47 65.7825C221.47 64.1104 220.514 62.7549 219.334 62.7549C218.154 62.7549 217.198 64.1104 217.198 65.7825C217.198 67.4546 218.154 68.8101 219.334 68.8101Z" fill="black"/>
<path d="M197.023 65.93C198.202 65.93 199.159 64.5745 199.159 62.9024C199.159 61.2303 198.202 59.8748 197.023 59.8748C195.843 59.8748 194.887 61.2303 194.887 62.9024C194.887 64.5745 195.843 65.93 197.023 65.93Z" fill="black"/>
<path d="M206.095 63.4321C206.095 63.4321 203.621 75.5427 205.419 77.7658C207.216 79.9889 210.579 78.5915 210.579 78.5915" stroke="black" stroke-width="1.45033" stroke-linecap="round" stroke-linejoin="round"/>
<path d="M210.98 85.5572C210.98 85.5572 212.651 86.1712 215.062 84.795C217.494 83.4188 218.869 81.1957 218.869 81.1957" stroke="black" stroke-width="1.45033" stroke-linecap="round" stroke-linejoin="round"/>
<path d="M250.042 63.03C245.114 64.8508 242.069 70.3979 242.513 75.4792" stroke="black" stroke-width="1.45033" stroke-linecap="round" stroke-linejoin="round"/>
<path d="M248.605 69.8682L244.438 67.9416" stroke="black" stroke-width="1.45033" stroke-linecap="round" stroke-linejoin="round"/>
<path d="M217.072 56.9107C217.072 56.9107 218.531 56.5719 220.985 56.8895C223.438 57.2071 224.728 58.054 224.728 58.054" stroke="black" stroke-width="1.45033" stroke-linecap="round" stroke-linejoin="round"/>
<path d="M193.766 55.4507C196.241 54.4344 199.075 54.8155 201.507 55.7683" stroke="black" stroke-width="1.45033" stroke-linecap="round" stroke-linejoin="round"/>
<path d="M232.764 91.7821C232.764 91.7821 230.332 96.1859 224.981 98.9383C219.631 101.691 213.836 102.241 213.836 102.241" stroke="black" stroke-width="1.45033" stroke-linecap="round" stroke-linejoin="round"/>
<path fill-rule="evenodd" clip-rule="evenodd" d="M284.725 58.9862C284.725 58.9862 284.725 56.8054 287.2 54.2436C289.695 51.6817 291.831 52.0628 291.831 52.0628L316.131 90.2999L313.17 92.8618L284.725 58.9862Z" fill="#DE7773"/>
<path fill-rule="evenodd" clip-rule="evenodd" d="M71.4225 185.66L131.632 187.184C131.632 187.184 138.463 186.909 137.237 192.032C136.01 197.156 105.493 287.244 105.493 287.244C105.493 287.244 103.674 291.542 99.6135 291.224C95.5741 290.928 40.884 285.106 40.884 285.106C40.884 285.106 32.6996 284.873 35.4489 278.458C38.1982 272.042 64.9299 193.578 64.9299 193.578C64.9299 193.578 66.7698 184.77 71.4225 185.66Z" fill="#DE7773"/>
<path d="M88.4342 241.3C91.6517 239.374 92.9879 235.683 91.4188 233.055C89.8496 230.426 85.9693 229.856 82.7518 231.782C79.5343 233.707 78.1981 237.398 79.7672 240.026C81.3364 242.655 85.2167 243.225 88.4342 241.3Z" fill="white"/>
<path fill-rule="evenodd" clip-rule="evenodd" d="M140.578 184.305L140.113 179.393C140.113 179.393 134.699 176.132 130.405 180.875C126.133 185.617 122.475 191.419 120.635 193.493C118.795 195.547 122.855 198.3 128.037 195.103C133.239 191.884 136.052 188.306 136.052 188.306L140.578 184.305Z" fill="white"/>
<path fill-rule="evenodd" clip-rule="evenodd" d="M7.59562 254.956C7.59562 254.956 68.7148 254.808 80.1773 263.679C91.6398 272.551 108.749 334.035 108.749 334.035L141.445 332.807C141.445 332.807 135.946 393.698 122.792 400.727C112.027 406.486 63.0259 410.932 37.2247 401.617C19.9464 393.656 11.1063 369.414 6.79198 351.756C2.47768 334.077 4.65598 329.589 4.65598 329.589L9.66818 315.996C9.66818 315.996 -0.102437 270.857 1.10303 264.293C2.32964 257.709 7.59562 254.956 7.59562 254.956Z" fill="black"/>
<path fill-rule="evenodd" clip-rule="evenodd" d="M9.66818 315.996C9.66818 315.996 -0.102437 270.857 1.10303 264.293C1.22992 263.616 1.39911 262.981 1.61059 262.409C18.9947 259.995 66.5788 263.87 72.1832 270.92C78.6758 279.114 86.1624 321.543 86.1624 321.543C86.1624 321.543 75.0805 321.861 54.6934 320.4C34.285 318.96 9.66818 315.996 9.66818 315.996Z" fill="black"/>
<path fill-rule="evenodd" clip-rule="evenodd" d="M140.323 342.8C138.124 360.373 132.583 395.477 122.791 400.728C120.19 402.125 115.305 403.438 109.066 404.517C107.691 403.12 106.274 401.236 105.026 398.716C100.902 390.311 99.3797 351.29 99.3797 351.29L140.323 342.8Z" fill="black"/>
<path fill-rule="evenodd" clip-rule="evenodd" d="M93.712 406.359C75.0802 407.799 52.2398 407.037 37.2243 401.616C19.946 393.656 11.1059 369.413 6.7916 351.756C4.16919 341.021 3.93655 335.157 4.16919 332.193C11.2751 332.277 30.626 332.807 52.3878 335.982C79.8174 339.984 81.0441 346.251 85.02 359.399C87.8116 368.672 91.6606 392.83 93.712 406.359Z" fill="black"/>
<path fill-rule="evenodd" clip-rule="evenodd" d="M69.0956 97.2447L70.7874 95.0004C70.7874 95.0004 70.9143 87.9924 72.3947 83.0169C73.8751 78.0626 79.7756 78.5495 79.1199 81.4925C78.4643 84.4354 78.4432 93.1372 78.4432 93.1372C75.6093 94.3652 72.437 95.7626 69.0956 97.2447Z" fill="white"/>
<path fill-rule="evenodd" clip-rule="evenodd" d="M339.775 270.221C339.775 270.221 336.18 268.612 334.34 271.978C332.521 275.345 315.772 305.325 315.772 305.325L305.155 323.13C305.155 323.13 301.983 327.238 305.536 329.673C309.089 332.129 331.316 342.524 331.316 342.524C331.316 342.524 335.99 345.891 339.5 340.089C343.011 334.267 368.453 288.916 368.453 288.916C368.453 288.916 371.688 283.835 367.374 281.845C363.06 279.854 339.775 270.221 339.775 270.221Z" fill="white" stroke="#DE7773" stroke-width="1.45033" stroke-linecap="round" stroke-linejoin="round"/>
<path fill-rule="evenodd" clip-rule="evenodd" d="M359.846 278.606C355.7 276.848 350.709 274.774 346.755 273.122L346.078 276.531L356.99 281.041L359.846 278.606Z" fill="#DE7773" stroke="#DE7773" stroke-width="1.45033" stroke-linecap="round" stroke-linejoin="round"/>
<path d="M290.838 52.4012C290.838 52.4012 292.974 48.3997 296.04 49.3948C297.732 49.9452 298.261 52.6765 298.832 55.7041C299.318 58.2448 299.868 61.0183 301.031 62.4792C302.448 64.2365 302.47 61.6958 302.47 61.6958L303.908 61.717C303.908 61.7382 303.865 68.2804 299.911 63.3896C298.515 61.6323 297.944 58.6682 297.415 55.9582C296.929 53.3751 296.463 51.0462 295.596 50.771C293.693 50.157 292.107 53.0999 292.086 53.0999L290.838 52.4012Z" fill="black"/>
<path d="M241.667 214.898L236.317 212.357" stroke="black" stroke-width="1.45033" stroke-linecap="round" stroke-linejoin="round"/>
<path d="M242.175 211.617C240.335 211.554 238.178 211.554 236.317 212.358" stroke="black" stroke-width="1.45033" stroke-linecap="round" stroke-linejoin="round"/>
<path d="M140.113 179.393C140.113 179.393 134.699 176.132 130.405 180.875C126.133 185.617 122.475 191.419 120.635 193.493C118.795 195.547 122.855 198.3 128.037 195.103C133.239 191.884 136.052 188.306 136.052 188.306" stroke="black" stroke-width="1.45033" stroke-linecap="round" stroke-linejoin="round"/>
<path d="M69.0956 97.2447L70.7874 95.0004C70.7874 95.0004 70.9143 87.9924 72.3947 83.0169C73.8751 78.0626 79.7756 78.5495 79.1199 81.4925C78.4643 84.4354 78.4432 93.1372 78.4432 93.1372" stroke="black" stroke-width="1.45033" stroke-linecap="round" stroke-linejoin="round"/>
<path d="M127.635 249.134C139.393 255.104 135.735 263.51 132.076 274.519C129.094 283.475 115.157 320.167 109.976 333.844" stroke="white" stroke-width="1.45033" stroke-linecap="round" stroke-linejoin="round"/>
<path d="M79.8391 263.7C91.2804 272.571 108.39 334.056 108.39 334.056L115.157 333.801" stroke="white" stroke-width="1.45033" stroke-linecap="round" stroke-linejoin="round"/>
<path d="M109.066 404.517C107.691 403.12 106.274 401.236 105.026 398.716C100.902 390.311 99.3797 351.29 99.3797 351.29L140.323 342.8" stroke="white" stroke-width="1.45033" stroke-linecap="round" stroke-linejoin="round"/>
<path d="M4.16895 332.193C11.2748 332.277 30.6257 332.807 52.3876 335.982C79.8172 339.984 81.0438 346.251 85.0197 359.399C87.8113 368.672 91.6603 392.83 93.7118 406.359" stroke="white" stroke-width="1.45033" stroke-linecap="round" stroke-linejoin="round"/>
<path d="M1.61038 262.409C18.9945 259.995 66.5786 263.87 72.183 270.92C78.6756 279.114 86.1621 321.543 86.1621 321.543C86.1621 321.543 75.0803 321.861 54.6931 320.4C34.2848 318.96 9.66796 315.996 9.66796 315.996" stroke="white" stroke-width="1.45033" stroke-linecap="round" stroke-linejoin="round"/>
<path d="M137.236 192.033C136.01 197.156 105.493 287.244 105.493 287.244C105.493 287.244 103.674 291.542 99.6132 291.225" stroke="white" stroke-width="1.45033" stroke-linecap="round" stroke-linejoin="round"/>
<path d="M127.888 179.626L125.329 176.111" stroke="black" stroke-width="1.45033" stroke-linecap="round" stroke-linejoin="round"/>
<path d="M61.7567 126.843L64.6963 134.126" stroke="#6CA3B7" stroke-width="1.45033" stroke-linecap="round" stroke-linejoin="round"/>
<path d="M66.3044 123.181L69.3921 130.443" stroke="#6CA3B7" stroke-width="1.45033" stroke-linecap="round" stroke-linejoin="round"/>
<path d="M70.8086 120.025L74.2346 126.737" stroke="#6CA3B7" stroke-width="1.45033" stroke-linecap="round" stroke-linejoin="round"/>
<path d="M75.588 116.871L78.866 123.35" stroke="#6CA3B7" stroke-width="1.45033" stroke-linecap="round" stroke-linejoin="round"/>
<path d="M80.0289 114.013L83.5184 120.111" stroke="#6CA3B7" stroke-width="1.45033" stroke-linecap="round" stroke-linejoin="round"/>
<path d="M162.487 221.97L169.847 225.209" stroke="#6CA3B7" stroke-width="1.45033" stroke-linecap="round" stroke-linejoin="round"/>
<path d="M163.925 215.238L171.602 218.562" stroke="#6CA3B7" stroke-width="1.45033" stroke-linecap="round" stroke-linejoin="round"/>
<path d="M165.152 209.563L173.273 212.061" stroke="#6CA3B7" stroke-width="1.45033" stroke-linecap="round" stroke-linejoin="round"/>
<path d="M166.421 203.593L174.69 206.028" stroke="#6CA3B7" stroke-width="1.45033" stroke-linecap="round" stroke-linejoin="round"/>
<path d="M167.626 197.94L175.874 200.438" stroke="#6CA3B7" stroke-width="1.45033" stroke-linecap="round" stroke-linejoin="round"/>
<path d="M168.599 193.366L176.72 195.865" stroke="#6CA3B7" stroke-width="1.45033" stroke-linecap="round" stroke-linejoin="round"/>
<path d="M291.831 196.457C291.831 196.457 280.475 243.269 249.915 254.427C219.355 265.585 161.324 227.496 161.324 227.496L169.255 190.36L236.317 212.358L262.752 154.388" stroke="black" stroke-width="1.45033" stroke-linecap="round" stroke-linejoin="round"/>
<path d="M1.42044 35.6331L29.3788 113.928L68.9265 97.3079" stroke="black" stroke-width="1.45033" stroke-linecap="round" stroke-linejoin="round"/>
<path d="M187.527 34.4895C191.101 31.7794 196.6 28.773 204.171 26.9098" stroke="white" stroke-width="1.45033" stroke-linecap="round" stroke-linejoin="round"/>
<path d="M187.675 24.327C191.926 23.0778 194.633 22.3368 199.899 21.8287" stroke="white" stroke-width="1.45033" stroke-linecap="round" stroke-linejoin="round"/>
<path d="M201.95 35.5901C204.044 33.9599 206.857 32.2449 210.388 30.7205" stroke="white" stroke-width="1.45033" stroke-linecap="round" stroke-linejoin="round"/>
<path d="M302.85 76.3466L306.022 80.6446M290.309 59.3453L299.91 72.3874L290.309 59.3453Z" stroke="white" stroke-width="1.45033" stroke-linecap="round" stroke-linejoin="round"/>
<path d="M148.148 415.971C140.091 419.295 134.233 414.828 134.233 414.828C134.233 414.828 130.214 411.461 127.655 405.491C125.096 399.499 124.399 397.572 124.399 397.572" stroke="black" stroke-width="1.45033" stroke-linecap="round" stroke-linejoin="round"/>
<path d="M87.8541 417.644C80.5579 419.147 74.7844 414.108 74.7844 414.108C74.7844 414.108 72.0351 412.203 70.4278 409.514C68.8205 406.825 68.5244 406.296 68.5244 406.296" stroke="black" stroke-width="1.45033" stroke-linecap="round" stroke-linejoin="round"/>
<path d="M149.417 322.115C148.571 319.024 146.647 311.105 144.765 308.755" stroke="black" stroke-width="1.45033" stroke-linecap="round" stroke-linejoin="round"/>
<path d="M151.532 315.064C150.686 311.994 148.698 305.431 146.879 301.725" stroke="black" stroke-width="1.45033" stroke-linecap="round" stroke-linejoin="round"/>
<path d="M153.118 306.934C152.251 303.864 150.179 297.047 148.445 293.596" stroke="black" stroke-width="1.45033" stroke-linecap="round" stroke-linejoin="round"/>
<path d="M155.424 299.207C154.578 296.137 151.405 286.461 149.544 282.629" stroke="black" stroke-width="1.45033" stroke-linecap="round" stroke-linejoin="round"/>
<path d="M64.295 6.83877L63.5759 4.0652L61.3765 5.12382L60.6997 2.7737L58.5003 4.04403L57.7389 1.88446L54.3763 3.89583L1.42044 35.633" stroke="black" stroke-width="1.45033" stroke-linecap="round" stroke-linejoin="round"/>
<path d="M246.277 55.1749C246.658 53.2271 246.975 50.9828 247.123 48.7174C247.187 47.6376 247.208 46.5578 247.166 45.478" stroke="white" stroke-width="1.45033" stroke-linecap="round" stroke-linejoin="round"/>
<path d="M251.438 52.5712C251.946 49.6706 252.348 46.1772 252.137 42.8531" stroke="white" stroke-width="1.45033" stroke-linecap="round" stroke-linejoin="round"/>
<path d="M255.055 55.8946C255.795 53.0575 256.493 49.6064 256.556 46.2824" stroke="white" stroke-width="1.45033" stroke-linecap="round" stroke-linejoin="round"/>
<path d="M65.5213 372.992C65.5213 372.992 61.6934 355.863 41.835 350.507C21.9765 345.15 11.3388 348.792 6.45352 350.358" stroke="white" stroke-width="1.45033" stroke-linecap="round" stroke-linejoin="round"/>
</svg>
