<svg width="369" height="423" viewBox="0 0 369 423" fill="none" xmlns="http://www.w3.org/2000/svg">
<path d="M90.4091 98.0596C90.4839 98.2467 88.876 114.363 88.3525 119.51L90.4091 98.0596ZM90.4091 98.0596C90.3156 97.835 83.4727 95.6637 83.4727 88.0082C83.4727 80.3527 89.4743 81.3073 89.4743 81.3073L90.4091 98.0596ZM144.33 67.3065C144.704 70.2826 144.554 73.5957 144.368 77.1333C143.676 90.1795 140.292 104.891 133.243 115.074C128.064 122.58 120.847 123.422 117.407 123.347" stroke="black" stroke-width="1.46246" stroke-linecap="round" stroke-linejoin="round"/>
<path fill-rule="evenodd" clip-rule="evenodd" d="M34.2067 268.446C34.2067 268.446 -3.87831 329.278 1.52501 360.387C6.92833 391.496 50.1549 392.562 90.9509 383.915C131.728 375.267 219.789 334.426 219.789 334.426C226.894 331.524 245.46 314.679 231.418 288.717C217.359 262.756 137.412 259.237 137.412 259.237L34.2067 268.446Z" fill="black" stroke="black" stroke-width="0.584984" stroke-linecap="round" stroke-linejoin="round"/>
<path d="M53.7827 332.498L148.051 321.829" stroke="white" stroke-width="1.46246" stroke-linecap="round" stroke-linejoin="round"/>
<path fill-rule="evenodd" clip-rule="evenodd" d="M167.252 322.315C167.252 322.315 170.636 326.844 171.029 335.361C171.44 343.896 170.075 356.175 170.075 356.175C170.075 356.175 195.69 359.507 215.807 366.806C235.943 374.106 247.816 363.156 238.767 348.426C229.717 333.676 209.17 323.718 199.466 320.836C189.763 317.953 185.014 316.512 185.014 316.512L167.252 322.315Z" fill="white" stroke="black" stroke-width="1.46246" stroke-linecap="round" stroke-linejoin="round"/>
<path fill-rule="evenodd" clip-rule="evenodd" d="M55.5209 307.622L110.713 338.019L206.047 313.817L231.25 262.681L238.43 247.295L233.737 243.14L226.015 244.787C207.206 248.643 143.713 262.363 143.713 262.363L139.768 263.373C138.197 267.285 136.29 270.767 134.327 274.192L128.213 287.819L126.867 288.174L55.5209 307.622Z" fill="#DE7773"/>
<path d="M112.545 334.089L144.161 266.967L234.653 248.006" stroke="white" stroke-width="1.46246" stroke-linecap="round" stroke-linejoin="round"/>
<path fill-rule="evenodd" clip-rule="evenodd" d="M77.3587 297.87C80.1445 300.547 86.7444 306.985 89.8293 310.673C93.793 315.427 95.0644 317.786 97.738 317.935C100.393 318.085 100.898 317.43 101.421 317.093C101.421 317.093 103.197 318.946 105.516 318.647C107.834 318.328 108.432 317.13 108.432 317.13C108.432 317.13 109.909 317.542 111.312 317.037C112.714 316.531 112.77 315.371 112.77 315.371C112.77 315.371 115.5 314.697 116.322 311.833C117.145 308.988 116.098 304.927 116.098 304.927C116.098 304.927 118.641 301.389 116.659 296.691C114.864 292.442 107.498 281.136 100.58 275.933L77.3587 297.87Z" fill="white"/>
<path d="M90.3907 301.875C93.0082 304.889 100.188 313.611 101.422 317.093" stroke="black" stroke-width="1.46246" stroke-linecap="round" stroke-linejoin="round"/>
<path d="M96.9152 298.73C96.9152 298.73 99.5327 301.239 103.197 306.517C106.88 311.795 107.497 314.996 108.301 317.336" stroke="black" stroke-width="1.46246" stroke-linecap="round" stroke-linejoin="round"/>
<path d="M102.861 295.024C107.423 299.835 111.723 308.819 112.77 315.37" stroke="black" stroke-width="1.46246" stroke-linecap="round" stroke-linejoin="round"/>
<path d="M107.647 291.506C110.714 294.763 114.21 300.864 116.098 304.926" stroke="black" stroke-width="1.46246" stroke-linecap="round" stroke-linejoin="round"/>
<path d="M77.3587 297.87C80.1445 300.547 86.7444 306.985 89.8293 310.673C93.793 315.427 95.0644 317.786 97.738 317.935C100.393 318.085 100.898 317.43 101.421 317.093C101.421 317.093 103.197 318.946 105.516 318.647C107.834 318.328 108.432 317.13 108.432 317.13C108.432 317.13 109.909 317.542 111.312 317.037C112.714 316.531 112.77 315.371 112.77 315.371C112.77 315.371 115.5 314.697 116.322 311.833C117.145 308.988 116.098 304.927 116.098 304.927C116.098 304.927 118.641 301.389 116.659 296.691C114.864 292.442 107.498 281.136 100.58 275.933" stroke="black" stroke-width="1.46246" stroke-linecap="round" stroke-linejoin="round"/>
<path fill-rule="evenodd" clip-rule="evenodd" d="M48.0609 136.861C48.0609 136.861 64.4952 122.337 98.523 117.882C132.551 113.427 166.392 120.671 179.348 153.108C192.305 185.565 189.351 226.425 187.837 252.873L151.902 260.585L148.836 210.927C148.836 210.927 143.582 251.844 143.395 257.253C143.189 262.681 135.841 266.537 127.334 269.831C118.828 273.126 103.459 273.219 103.459 273.219L76.9658 298.245C76.9658 298.245 10.2563 274.38 3.11423 244.001C-4.04657 213.604 26.9898 149.627 48.0609 136.861Z" fill="#D7F0F7"/>
<path d="M59.5224 187.754L44.8268 231.89C44.8268 231.89 72.0865 250.383 81.5657 257.065C91.0262 263.747 103.459 273.218 103.459 273.218" stroke="black" stroke-width="1.46246" stroke-linecap="round" stroke-linejoin="round"/>
<path d="M156.875 161.25L151.397 192.359L146.873 225.321" stroke="black" stroke-width="1.46246" stroke-linecap="round" stroke-linejoin="round"/>
<path d="M79.5089 121.756C85.9219 147.549 126.755 154.212 123.82 116.066" stroke="#6CA3B7" stroke-width="1.46246" stroke-linecap="round" stroke-linejoin="round"/>
<path fill-rule="evenodd" clip-rule="evenodd" d="M120.025 52.4068C145.246 54.1475 145.059 64.0678 144.368 77.1327C143.676 90.1789 140.292 104.891 133.243 115.073C128.064 122.579 120.847 123.421 117.407 123.347C118.398 128.382 116.884 137.665 103.441 136.879C90.0165 136.093 85.2675 120.277 85.2675 120.277C85.2675 120.277 87.1933 119.846 88.3525 119.509C88.876 114.362 90.4839 98.2462 90.4091 98.059C90.3156 97.8344 83.4727 95.6632 83.4727 88.0077C83.4727 80.3522 89.4743 81.3068 89.4743 81.3068C91.9235 63.5999 97.3829 50.8532 120.025 52.4068Z" fill="white"/>
<path fill-rule="evenodd" clip-rule="evenodd" d="M144.461 68.7289C139.917 68.9909 134.477 68.785 128.868 68.3358C129.223 69.2342 129.429 70.4322 128.774 71.6114C127.466 73.9136 117.856 69.4776 117.856 69.4776C117.856 69.4776 116.939 73.0526 112.116 72.3975C108.376 71.8921 105.591 69.9455 104.544 69.1032L104.338 69.1407C104.338 69.1407 99.5141 85.3314 99.215 87.2967C98.8971 89.2434 95.2513 82.5425 89.474 81.3071C89.474 81.3071 83.4724 80.3525 83.4724 88.008C83.4724 95.6635 90.3154 97.8347 90.4089 98.0593C90.4276 98.1529 90.1097 101.709 89.6797 106.014C89.6797 106.014 86.0339 104.143 81.9393 95.6073C77.8635 87.0721 74.8159 65.6966 84.3886 55.0837C93.9425 44.4708 113.331 43.2542 118.472 41.7755C123.595 40.2968 146.76 34.12 150.201 37.7325C153.641 41.3263 147.284 46.1742 147.284 46.1742C147.284 46.1742 154.538 46.118 155.94 49.169C157.324 52.2199 150.032 54.8217 149.939 55.7763C149.845 56.7496 154.856 59.3139 155.324 63.8436C155.81 68.3545 144.479 68.7289 144.461 68.7289Z" fill="black" stroke="black" stroke-width="1.46246" stroke-linecap="round" stroke-linejoin="round"/>
<path d="M87.1374 84.807C87.1374 84.807 89.8297 86.3231 91.6619 88.8125C93.4755 91.302 94.186 94.6524 94.186 94.6524" stroke="black" stroke-width="1.46246" stroke-linecap="round" stroke-linejoin="round"/>
<path d="M88.3894 92.3317L91.6613 88.8128" stroke="black" stroke-width="1.46246" stroke-linecap="round" stroke-linejoin="round"/>
<path d="M97.1577 106.651C100.841 116.122 107.235 123.01 117.406 123.347" stroke="black" stroke-width="1.46246" stroke-linecap="round" stroke-linejoin="round"/>
<path d="M67.9551 294.669C67.9551 294.669 76.836 284.019 84.7633 277.243C92.6907 270.468 96.5983 268.053 96.5983 268.053" stroke="#6CA3B7" stroke-width="1.46246" stroke-linecap="round" stroke-linejoin="round"/>
<path d="M100.113 276.382L93.1951 270.448" stroke="#6CA3B7" stroke-width="1.46246" stroke-linecap="round" stroke-linejoin="round"/>
<path d="M80.1261 295.268L71.8622 290.196" stroke="#6CA3B7" stroke-width="1.46246" stroke-linecap="round" stroke-linejoin="round"/>
<path d="M83.8095 291.768L75.8634 285.835" stroke="#6CA3B7" stroke-width="1.46246" stroke-linecap="round" stroke-linejoin="round"/>
<path d="M88.0343 287.8L79.8078 281.829" stroke="#6CA3B7" stroke-width="1.46246" stroke-linecap="round" stroke-linejoin="round"/>
<path d="M92.1104 283.944L84.4822 277.487" stroke="#6CA3B7" stroke-width="1.46246" stroke-linecap="round" stroke-linejoin="round"/>
<path d="M96.2612 280.013L89.0069 273.724" stroke="#6CA3B7" stroke-width="1.46246" stroke-linecap="round" stroke-linejoin="round"/>
<path d="M126.83 290.589L109.33 329.016" stroke="black" stroke-width="1.46246" stroke-linecap="round" stroke-linejoin="round"/>
<path d="M22.8584 237.692C32.8424 233.2 37.8344 232.096 44.827 231.89" stroke="black" stroke-width="1.46246" stroke-linecap="round" stroke-linejoin="round"/>
<path d="M144.461 56.4127C139.712 54.5784 132.757 53.0248 123.876 53.343" stroke="white" stroke-width="1.46246" stroke-linecap="round" stroke-linejoin="round"/>
<path d="M141.133 45.3504C136.085 45.313 132.888 45.3504 126.961 46.436" stroke="white" stroke-width="1.46246" stroke-linecap="round" stroke-linejoin="round"/>
<path d="M129.036 62.1589C126.213 61.0358 122.623 60.0251 118.267 59.4823" stroke="white" stroke-width="1.46246" stroke-linecap="round" stroke-linejoin="round"/>
<path d="M93.4005 79.0613C93.5313 76.8152 93.8118 74.2509 94.3353 71.724C94.5783 70.5074 94.8775 69.3094 95.2327 68.1302" stroke="white" stroke-width="1.46246" stroke-linecap="round" stroke-linejoin="round"/>
<path d="M89.3619 74.7931C89.6236 71.4614 90.2219 67.4933 91.3998 63.8995" stroke="white" stroke-width="1.46246" stroke-linecap="round" stroke-linejoin="round"/>
<path d="M84.894 77.4135C84.894 75.5605 84.9689 73.4641 85.1934 71.349" stroke="white" stroke-width="1.46246" stroke-linecap="round" stroke-linejoin="round"/>
<path fill-rule="evenodd" clip-rule="evenodd" d="M124.698 201.081L110.283 254.145L151.621 245.329L167.177 193.088L124.698 201.081Z" fill="white" stroke="black" stroke-width="1.46246" stroke-linecap="round" stroke-linejoin="round"/>
<path d="M128.98 210.664L156.333 205.311" stroke="black" stroke-width="1.46246" stroke-linecap="round" stroke-linejoin="round"/>
<path d="M126.306 220.266L153.659 214.913" stroke="black" stroke-width="1.46246" stroke-linecap="round" stroke-linejoin="round"/>
<path d="M124.324 229.738L146.872 225.32" stroke="black" stroke-width="1.46246" stroke-linecap="round" stroke-linejoin="round"/>
<path d="M121.146 239.002L137.674 235.764" stroke="black" stroke-width="1.46246" stroke-linecap="round" stroke-linejoin="round"/>
<path fill-rule="evenodd" clip-rule="evenodd" d="M170.375 164.208L155.96 217.272L197.279 208.456L212.835 156.215L170.375 164.208Z" fill="white" stroke="black" stroke-width="1.46246" stroke-linecap="round" stroke-linejoin="round"/>
<path d="M174.637 173.809L202.009 168.437" stroke="black" stroke-width="1.46246" stroke-linecap="round" stroke-linejoin="round"/>
<path d="M171.983 183.393L199.336 178.04" stroke="black" stroke-width="1.46246" stroke-linecap="round" stroke-linejoin="round"/>
<path d="M170.001 192.865L192.549 188.447" stroke="black" stroke-width="1.46246" stroke-linecap="round" stroke-linejoin="round"/>
<path d="M166.803 202.148L183.349 198.91" stroke="black" stroke-width="1.46246" stroke-linecap="round" stroke-linejoin="round"/>
<path fill-rule="evenodd" clip-rule="evenodd" d="M265.661 176.729L239.374 273.495L314.722 257.418L343.089 162.154L265.661 176.729Z" fill="white" stroke="black" stroke-width="1.46246" stroke-linecap="round" stroke-linejoin="round"/>
<path d="M273.435 194.239L323.349 184.477" stroke="black" stroke-width="1.46246" stroke-linecap="round" stroke-linejoin="round"/>
<path d="M268.593 211.749L318.473 201.953" stroke="black" stroke-width="1.46246" stroke-linecap="round" stroke-linejoin="round"/>
<path d="M264.979 228.987L306.097 220.931" stroke="black" stroke-width="1.46246" stroke-linecap="round" stroke-linejoin="round"/>
<path d="M259.147 245.916L289.321 240.011" stroke="black" stroke-width="1.46246" stroke-linecap="round" stroke-linejoin="round"/>
<path d="M127.353 90.1791C127.484 95.757 127.746 99.5754 128.7 105.06C126.923 105.621 124.306 105.939 122.511 105.49" stroke="black" stroke-width="1.46246" stroke-linecap="round" stroke-linejoin="round"/>
<path d="M115.371 94.4548C116.584 94.5623 117.669 93.5007 117.794 92.0835C117.92 90.6663 117.038 89.4303 115.824 89.3228C114.611 89.2153 113.526 90.277 113.401 91.6941C113.275 93.1113 114.157 94.3473 115.371 94.4548Z" fill="black"/>
<path d="M112.733 84.2643C114.509 84.2081 117.912 84.0209 120.679 84.5825" stroke="black" stroke-width="1.46246" stroke-linecap="round" stroke-linejoin="round"/>
<path d="M133.168 82.9166C134.44 82.299 137.468 81.7 139.749 81.831" stroke="black" stroke-width="1.46246" stroke-linecap="round" stroke-linejoin="round"/>
<path d="M135.529 92.5062C136.742 92.6138 137.827 91.5521 137.953 90.1349C138.078 88.7178 137.196 87.4818 135.983 87.3742C134.769 87.2667 133.684 88.3284 133.559 89.7455C133.434 91.1627 134.316 92.3987 135.529 92.5062Z" fill="black"/>
<path fill-rule="evenodd" clip-rule="evenodd" d="M115.239 111.985L126.831 110.638C126.831 110.638 125.971 114.381 121.39 114.812C116.791 115.223 115.239 111.985 115.239 111.985Z" stroke="black" stroke-width="1.46246" stroke-linecap="round" stroke-linejoin="round"/>
<path fill-rule="evenodd" clip-rule="evenodd" d="M327.8 139.743L321.93 192.826C321.93 192.826 325.856 198.628 335.167 199.377C344.496 200.126 347.937 196.869 347.937 196.869L364.147 148.465C364.147 148.465 341.785 151.235 327.8 139.743Z" fill="white" stroke="black" stroke-width="1.46246" stroke-linecap="round" stroke-linejoin="round"/>
<path fill-rule="evenodd" clip-rule="evenodd" d="M323.686 156.046L321.518 175.774C321.518 175.774 326.528 180.847 337.933 182.943C349.357 185.04 354.947 182.812 354.947 182.812L361.042 163.814C361.042 163.814 339.635 165.835 323.686 156.046Z" fill="#DE7773"/>
<path fill-rule="evenodd" clip-rule="evenodd" d="M340.906 132.275L335.933 131.339L330.006 135.364C330.006 135.364 327.968 137.235 330.81 141.166C333.652 145.078 353.564 148.616 353.564 148.616L363.23 147.867L365.941 143.262L361.416 136.468L340.906 132.275Z" fill="white" stroke="black" stroke-width="1.46246" stroke-linecap="round" stroke-linejoin="round"/>
<path fill-rule="evenodd" clip-rule="evenodd" d="M330.006 135.364C330.006 135.364 324.884 134.652 325.482 139.65C326.099 144.648 338.513 149.477 351.078 150.768C363.642 152.06 367.718 149.683 367.998 147.043C368.26 144.423 365.941 143.262 365.941 143.262C361.959 149.495 328.623 144.067 330.006 135.364Z" fill="white" stroke="black" stroke-width="1.46246" stroke-linecap="round" stroke-linejoin="round"/>
<path fill-rule="evenodd" clip-rule="evenodd" d="M349.189 131.339C356.219 132.761 361.697 135.045 361.417 136.468C361.136 137.871 357.098 139.425 347.955 137.366C338.831 135.307 335.653 132.743 335.933 131.339C336.214 129.916 342.141 129.935 349.189 131.339Z" fill="white" stroke="black" stroke-width="1.46246" stroke-linecap="round" stroke-linejoin="round"/>
<path d="M189.637 56.067C199.669 62.1714 215.711 57.0434 225.469 44.6132C235.227 32.183 235.005 17.1576 224.973 11.0532C214.941 4.94867 198.898 10.0767 189.141 22.5069C179.383 34.9371 179.605 49.9625 189.637 56.067Z" stroke="#DE7773" stroke-width="1.99887" stroke-linecap="round" stroke-linejoin="round"/>
<path d="M188.657 53.522C198.188 59.3213 213.429 54.4496 222.699 42.6406C231.969 30.8316 231.758 16.5572 222.227 10.7578C212.697 4.95846 197.456 9.83021 188.186 21.6392C178.916 33.4482 179.127 47.7226 188.657 53.522Z" fill="#DE7773"/>
<path d="M220.038 34.8228L202.774 32.9129" stroke="white" stroke-width="1.46246" stroke-linecap="round" stroke-linejoin="round"/>
<path fill-rule="evenodd" clip-rule="evenodd" d="M209.181 15.3816L218.115 10.63L218.626 18.4406L218.006 18.4251C218.13 16.6394 217.386 15.1487 216.176 14.776L205.194 30.6611C205.939 31.4685 205.83 32.9437 204.853 34.1704C203.736 35.599 201.906 36.189 200.758 35.4903C199.611 34.7915 199.595 33.0679 200.712 31.6549C201.487 30.6456 202.635 30.0555 203.643 30.04L214.206 14.5586C212.236 14.6362 210.778 15.0244 209.553 15.6766L209.181 15.3816Z" fill="white"/>
<path fill-rule="evenodd" clip-rule="evenodd" d="M190.056 24.9471L199.114 31.6707C199.315 31.2204 199.594 30.7546 199.982 30.3198L191.141 23.503C192.522 22.3539 194.445 22.0744 194.445 22.0744L194.554 21.5465L188.846 22.9129L188.892 28.9533L189.513 28.5806C189.513 28.5806 189.063 27.385 190.04 24.9626L190.056 24.9471Z" fill="white"/>
<path d="M201.992 33.9184C202.44 34.1911 203.156 33.9621 203.592 33.4068C204.028 32.8515 204.018 32.1802 203.57 31.9075C203.122 31.6348 202.405 31.8639 201.969 32.4192C201.533 32.9745 201.543 33.6457 201.992 33.9184Z" fill="#DE7773"/>
<path fill-rule="evenodd" clip-rule="evenodd" d="M64.9959 40.3062C57.4238 42.3464 40.0546 45.8279 30.2576 38.0601C17.4878 27.8964 23.2277 11.3501 42.803 5.41661C88.3854 -8.4157 98.2572 26.7921 73.989 37.405L72.325 47.6435L64.9959 40.3062Z" fill="#D7F0F7"/>
<path d="M46.9715 29.0856C50.7983 31.4979 56.3021 29.6351 59.2648 24.9248C62.2274 20.2145 61.5269 14.4405 57.7001 12.0281C53.8734 9.6158 48.3695 11.4787 45.4069 16.189C42.4443 20.8992 43.1448 26.6733 46.9715 29.0856Z" stroke="black" stroke-width="2.26907" stroke-linecap="round" stroke-linejoin="round"/>
<path d="M65.3144 32.2391L58.2471 26.3056" stroke="black" stroke-width="1.46246" stroke-linecap="round" stroke-linejoin="round"/>
<path fill-rule="evenodd" clip-rule="evenodd" d="M237.019 351.809L158.549 376.292L221.351 408.598L300.625 387.653L237.019 351.809Z" fill="white" stroke="black" stroke-width="1.46246" stroke-linecap="round" stroke-linejoin="round"/>
<path fill-rule="evenodd" clip-rule="evenodd" d="M220.005 422L158.007 389.675L158.549 376.292L221.351 408.598L220.005 422Z" fill="white" stroke="black" stroke-width="1.46246" stroke-linecap="round" stroke-linejoin="round"/>
<path fill-rule="evenodd" clip-rule="evenodd" d="M300.625 387.653L298.606 400.212L220.006 422L221.352 408.598L300.625 387.653Z" fill="white" stroke="black" stroke-width="1.46246" stroke-linecap="round" stroke-linejoin="round"/>
<path d="M214.059 369.123L246.741 389.001" stroke="#DE7773" stroke-width="1.46246" stroke-linecap="round" stroke-linejoin="round"/>
<path d="M212.9 376.292L232.027 387.653" stroke="#DE7773" stroke-width="1.46246" stroke-linecap="round" stroke-linejoin="round"/>
<path d="M200.411 380.148L221.894 392.183" stroke="black" stroke-width="1.46246" stroke-linecap="round" stroke-linejoin="round"/>
<path d="M199.27 386.024L208.319 391.49" stroke="black" stroke-width="1.46246" stroke-linecap="round" stroke-linejoin="round"/>
<path fill-rule="evenodd" clip-rule="evenodd" d="M236.271 358.772L227.484 361.542L271.926 386.774L281.311 384.153L236.271 358.772Z" fill="#DE7773"/>
<path d="M164.214 382.843L200.411 402.103" stroke="#6CA3B7" stroke-width="1.46246" stroke-linecap="round" stroke-linejoin="round"/>
<path d="M168.253 388.383L187.305 398.584" stroke="#6CA3B7" stroke-width="1.46246" stroke-linecap="round" stroke-linejoin="round"/>
<path d="M231.672 410.826L263.082 402.852" stroke="#6CA3B7" stroke-width="1.46246" stroke-linecap="round" stroke-linejoin="round"/>
<path d="M251.864 409.066L271.309 403.938" stroke="#6CA3B7" stroke-width="1.46246" stroke-linecap="round" stroke-linejoin="round"/>
<path fill-rule="evenodd" clip-rule="evenodd" d="M230.4 336.254L151.93 360.737L214.732 393.062L294.006 372.098L230.4 336.254Z" fill="white" stroke="black" stroke-width="1.46246" stroke-linecap="round" stroke-linejoin="round"/>
<path fill-rule="evenodd" clip-rule="evenodd" d="M213.386 406.445L151.388 374.12L151.93 360.737L214.732 393.062L213.386 406.445Z" fill="white" stroke="black" stroke-width="1.46246" stroke-linecap="round" stroke-linejoin="round"/>
<path fill-rule="evenodd" clip-rule="evenodd" d="M294.006 372.098L291.987 384.677L213.387 406.445L214.733 393.062L294.006 372.098Z" fill="white" stroke="black" stroke-width="1.46246" stroke-linecap="round" stroke-linejoin="round"/>
<path d="M207.44 353.568L240.122 373.446" stroke="#DE7773" stroke-width="1.46246" stroke-linecap="round" stroke-linejoin="round"/>
<path d="M206.281 360.737L225.408 372.099" stroke="#DE7773" stroke-width="1.46246" stroke-linecap="round" stroke-linejoin="round"/>
<path d="M193.792 364.593L215.274 376.628" stroke="black" stroke-width="1.46246" stroke-linecap="round" stroke-linejoin="round"/>
<path d="M192.651 370.47L201.7 375.954" stroke="black" stroke-width="1.46246" stroke-linecap="round" stroke-linejoin="round"/>
<path fill-rule="evenodd" clip-rule="evenodd" d="M229.652 343.218L220.883 346.007L265.306 371.219L274.692 368.617L229.652 343.218Z" fill="#DE7773"/>
<path d="M157.595 367.288L193.791 386.549" stroke="#6CA3B7" stroke-width="1.46246" stroke-linecap="round" stroke-linejoin="round"/>
<path d="M161.634 372.828L180.686 383.03" stroke="#6CA3B7" stroke-width="1.46246" stroke-linecap="round" stroke-linejoin="round"/>
<path d="M225.053 395.271L256.463 387.297" stroke="#6CA3B7" stroke-width="1.46246" stroke-linecap="round" stroke-linejoin="round"/>
<path d="M245.245 393.512L264.69 388.383" stroke="#6CA3B7" stroke-width="1.46246" stroke-linecap="round" stroke-linejoin="round"/>
<path fill-rule="evenodd" clip-rule="evenodd" d="M227.221 322.066L148.751 346.549L211.553 378.874L290.845 357.91L227.221 322.066Z" fill="white" stroke="black" stroke-width="1.46246" stroke-linecap="round" stroke-linejoin="round"/>
<path fill-rule="evenodd" clip-rule="evenodd" d="M210.207 392.257L148.209 359.932L148.751 346.549L211.553 378.874L210.207 392.257Z" fill="white" stroke="black" stroke-width="1.46246" stroke-linecap="round" stroke-linejoin="round"/>
<path fill-rule="evenodd" clip-rule="evenodd" d="M290.846 357.91L288.808 370.488L210.207 392.257L211.553 378.874L290.846 357.91Z" fill="white" stroke="black" stroke-width="1.46246" stroke-linecap="round" stroke-linejoin="round"/>
<path d="M204.261 339.38L236.943 359.258" stroke="#DE7773" stroke-width="1.46246" stroke-linecap="round" stroke-linejoin="round"/>
<path d="M203.121 346.549L222.229 357.91" stroke="#DE7773" stroke-width="1.46246" stroke-linecap="round" stroke-linejoin="round"/>
<path d="M190.613 350.405L212.096 362.44" stroke="black" stroke-width="1.46246" stroke-linecap="round" stroke-linejoin="round"/>
<path d="M189.472 356.282L198.521 361.766" stroke="black" stroke-width="1.46246" stroke-linecap="round" stroke-linejoin="round"/>
<path fill-rule="evenodd" clip-rule="evenodd" d="M226.473 329.03L217.704 331.818L262.146 357.031L271.532 354.429L226.473 329.03Z" fill="#DE7773"/>
<path d="M154.416 353.1L190.613 372.361" stroke="#6CA3B7" stroke-width="1.46246" stroke-linecap="round" stroke-linejoin="round"/>
<path d="M158.474 358.64L177.507 368.841" stroke="#6CA3B7" stroke-width="1.46246" stroke-linecap="round" stroke-linejoin="round"/>
<path d="M221.874 381.083L253.284 373.109" stroke="#6CA3B7" stroke-width="1.46246" stroke-linecap="round" stroke-linejoin="round"/>
<path d="M242.066 379.324L261.529 374.195" stroke="#6CA3B7" stroke-width="1.46246" stroke-linecap="round" stroke-linejoin="round"/>
<path d="M62.0088 324.524C69.3005 325.441 74.1803 326.527 83.4912 329.128" stroke="white" stroke-width="1.46246" stroke-linecap="round" stroke-linejoin="round"/>
<path fill-rule="evenodd" clip-rule="evenodd" d="M184.677 181.147L170.262 234.211L211.6 225.395L227.156 173.154L184.677 181.147Z" fill="white" stroke="black" stroke-width="1.46246" stroke-linecap="round" stroke-linejoin="round"/>
<path d="M188.959 190.748L216.312 185.376" stroke="black" stroke-width="1.46246" stroke-linecap="round" stroke-linejoin="round"/>
<path d="M186.285 200.332L213.657 194.979" stroke="black" stroke-width="1.46246" stroke-linecap="round" stroke-linejoin="round"/>
<path d="M184.303 209.804L206.851 205.386" stroke="black" stroke-width="1.46246" stroke-linecap="round" stroke-linejoin="round"/>
<path d="M181.125 219.087L197.653 215.849" stroke="black" stroke-width="1.46246" stroke-linecap="round" stroke-linejoin="round"/>
</svg>
