<svg width="26" height="26" viewBox="0 0 26 26" fill="none" xmlns="http://www.w3.org/2000/svg">
<path d="M19.6667 8.94182C19.6666 8.25938 19.4063 7.57696 18.8856 7.05628C18.3649 6.53558 17.6825 6.27523 17 6.27523M17 16.9419C21.4183 16.9419 25 13.3602 25 8.94189C25 4.52362 21.4183 0.941895 17 0.941895C12.5817 0.941895 9 4.52362 9 8.94189C9 9.3068 9.02443 9.666 9.07175 10.0179C9.14957 10.5968 9.18848 10.8862 9.16229 11.0693C9.135 11.2601 9.10027 11.3629 9.00625 11.5311C8.916 11.6926 8.75695 11.8516 8.43884 12.1697L1.62484 18.9837C1.39424 19.2143 1.27894 19.3296 1.19648 19.4642C1.12337 19.5835 1.0695 19.7135 1.03684 19.8496C1 20.003 1 20.1661 1 20.4922V22.8086C1 23.5553 1 23.9287 1.14532 24.2139C1.27316 24.4648 1.47713 24.6687 1.72801 24.7966C2.01323 24.9419 2.3866 24.9419 3.13333 24.9419H6.33333V22.2752H9V19.6086H11.6667L13.7722 17.5031C14.0903 17.1849 14.2493 17.0259 14.4108 16.9356C14.579 16.8416 14.6818 16.8069 14.8725 16.7796C15.0557 16.7534 15.3451 16.7923 15.924 16.8701C16.2759 16.9175 16.6351 16.9419 17 16.9419Z" stroke="black" stroke-linecap="round" stroke-linejoin="round"/>
</svg>
