<svg width="98" height="98" viewBox="0 0 98 98" fill="none" xmlns="http://www.w3.org/2000/svg">
<path d="M16.9182 84.7043C19.8382 77.825 26.6556 73 34.6 73H63.4C71.3444 73 78.1618 77.825 81.0818 84.7044M68.2 37C68.2 47.6039 59.6039 56.2 49 56.2C38.3961 56.2 29.8 47.6039 29.8 37C29.8 26.3961 38.3961 17.8 49 17.8C59.6039 17.8 68.2 26.3961 68.2 37ZM97 49C97 75.5097 75.5097 97 49 97C22.4903 97 1 75.5097 1 49C1 22.4903 22.4903 1 49 1C75.5097 1 97 22.4903 97 49Z" stroke="black" stroke-width="2" stroke-linecap="round" stroke-linejoin="round"/>
</svg>
