<svg width="375" height="558" viewBox="0 0 375 558" fill="none" xmlns="http://www.w3.org/2000/svg">
<circle cx="187.5" cy="284.5" r="134.5" fill="#292B38"/>
<g filter="url(#filter0_d_68_888)">
<path d="M276.214 128.724C303.146 199.816 229.435 136.409 158.342 163.342C87.2502 190.275 45.6985 297.348 18.7658 226.256C-8.16679 155.163 27.6316 75.6985 98.7239 48.7658C169.816 21.8332 249.281 57.6316 276.214 128.724Z" fill="#DE7773"/>
</g>
<g filter="url(#filter1_d_68_888)">
<path d="M99.0085 366.383C139.526 421.609 202.948 443.946 147.722 484.463C92.4952 524.98 14.8797 513.056 -25.6374 457.83C-66.1544 402.603 -54.2301 324.988 0.996424 284.471C56.2229 243.953 58.4915 311.156 99.0085 366.383Z" fill="#F6C85D"/>
</g>
<g filter="url(#filter2_d_68_888)">
<path d="M443.731 378.611C419.62 462.695 331.655 511.24 247.257 487.039C162.858 462.838 256.917 416.041 281.028 331.957C305.139 247.873 250.171 158.342 334.57 182.543C418.968 206.744 467.841 294.527 443.731 378.611Z" fill="#09E8B2"/>
</g>
<path d="M158.636 295.08C158.457 295.08 158.278 295.057 158.099 294.997C157.418 294.783 156.929 294.187 156.857 293.484C156.845 293.341 156.487 290.1 156.487 288.146V238.57C156.487 231.636 162.134 226 169.082 226H206.076C213.024 226 218.67 231.636 218.67 238.57V273.575C218.67 280.509 213.024 286.145 206.076 286.145H174.203C170.06 286.145 166.037 287.848 163.172 290.827L159.997 294.461C159.651 294.854 159.161 295.069 158.648 295.069L158.636 295.08ZM169.082 229.574C164.104 229.574 160.069 233.613 160.069 238.57V288.146C160.069 288.385 160.069 288.647 160.081 288.921L160.522 288.42C164.127 284.691 169.093 282.582 174.191 282.582H206.076C211.054 282.582 215.089 278.543 215.089 273.587V238.57C215.089 233.601 211.042 229.574 206.076 229.574H169.082Z" fill="#F5F5F5"/>
<path d="M180.375 298.75L175.241 295.402L169.153 298.75V285.132H180.375V298.75Z" fill="#F5F5F5"/>
<path d="M184.696 308.532H174.931C164.76 308.532 156.487 301.276 156.487 292.352V288.146C156.487 287.157 157.287 286.359 158.278 286.359C159.269 286.359 160.069 287.157 160.069 288.146V292.352C160.069 299.31 166.742 304.958 174.931 304.958H184.696C192.145 304.958 198.329 300.287 199.403 294.223L190.39 294.616C189.364 294.652 188.564 293.889 188.528 292.912C188.48 291.923 189.256 291.089 190.235 291.053L201.289 290.577C201.791 290.553 202.256 290.732 202.602 291.077C202.961 291.411 203.152 291.876 203.152 292.364C203.152 301.288 194.879 308.544 184.708 308.544L184.696 308.532Z" fill="#F5F5F5"/>
<path d="M167.398 264.698C166.407 264.698 165.608 263.9 165.608 262.911V244.491C165.608 239.904 169.344 236.163 173.952 236.163H194.891C195.882 236.163 196.681 236.961 196.681 237.95C196.681 238.939 195.882 239.737 194.891 239.737H173.952C171.326 239.737 169.189 241.87 169.189 244.491V262.911C169.189 263.9 168.389 264.698 167.398 264.698Z" fill="#F5F5F5"/>
<path d="M144.02 333.616H148.212L135.012 347.168V342.96L144.02 333.616ZM138.756 342.144L148.772 354H144.82L136.612 344.128L138.756 342.144ZM132.276 333.616H135.348V354H132.276V333.616ZM155.57 354V333.616H158.61V354H155.57ZM165.123 336.24V333.616H181.187V336.24H173.987L174.675 335.536V354H171.635V335.536L172.307 336.24H165.123ZM183.978 354L190.954 333.616H194.714L201.482 354H198.282L196.698 349.136H188.826L187.178 354H183.978ZM189.594 346.8H195.946L192.778 337.28L189.594 346.8ZM208.496 354V333.616H215.328C217.6 333.616 219.35 334.181 220.576 335.312C221.803 336.443 222.416 338.005 222.416 340C222.416 341.973 221.803 343.525 220.576 344.656C219.35 345.776 217.6 346.336 215.328 346.336H211.568V354H208.496ZM211.568 343.68H215.328C216.63 343.68 217.616 343.344 218.288 342.672C218.96 342 219.296 341.109 219.296 340C219.296 338.88 218.96 337.973 218.288 337.28C217.616 336.587 216.63 336.24 215.328 336.24H211.568V343.68ZM229.79 354V333.616H236.622C238.894 333.616 240.643 334.181 241.87 335.312C243.097 336.443 243.71 338.005 243.71 340C243.71 341.973 243.097 343.525 241.87 344.656C240.643 345.776 238.894 346.336 236.622 346.336H232.862V354H229.79ZM232.862 343.68H236.622C237.923 343.68 238.91 343.344 239.582 342.672C240.254 342 240.59 341.109 240.59 340C240.59 338.88 240.254 337.973 239.582 337.28C238.91 336.587 237.923 336.24 236.622 336.24H232.862V343.68Z" fill="#F5F5F5"/>
<defs>
<filter id="filter0_d_68_888" x="-10.199" y="23.801" width="312.095" height="250.426" filterUnits="userSpaceOnUse" color-interpolation-filters="sRGB">
<feFlood flood-opacity="0" result="BackgroundImageFix"/>
<feColorMatrix in="SourceAlpha" type="matrix" values="0 0 0 0 0 0 0 0 0 0 0 0 0 0 0 0 0 0 127 0" result="hardAlpha"/>
<feOffset dy="4"/>
<feGaussianBlur stdDeviation="10"/>
<feComposite in2="hardAlpha" operator="out"/>
<feColorMatrix type="matrix" values="0 0 0 0 0.583333 0 0 0 0 0.583333 0 0 0 0 0.583333 0 0 0 0.25 0"/>
<feBlend mode="normal" in2="BackgroundImageFix" result="effect1_dropShadow_68_888"/>
<feBlend mode="normal" in="SourceGraphic" in2="effect1_dropShadow_68_888" result="shape"/>
</filter>
<filter id="filter1_d_68_888" x="-69.6709" y="256.085" width="258.984" height="276.412" filterUnits="userSpaceOnUse" color-interpolation-filters="sRGB">
<feFlood flood-opacity="0" result="BackgroundImageFix"/>
<feColorMatrix in="SourceAlpha" type="matrix" values="0 0 0 0 0 0 0 0 0 0 0 0 0 0 0 0 0 0 127 0" result="hardAlpha"/>
<feOffset dy="4"/>
<feGaussianBlur stdDeviation="10"/>
<feComposite in2="hardAlpha" operator="out"/>
<feColorMatrix type="matrix" values="0 0 0 0 0.583333 0 0 0 0 0.583333 0 0 0 0 0.583333 0 0 0 0.25 0"/>
<feBlend mode="normal" in2="BackgroundImageFix" result="effect1_dropShadow_68_888"/>
<feBlend mode="normal" in="SourceGraphic" in2="effect1_dropShadow_68_888" result="shape"/>
</filter>
<filter id="filter2_d_68_888" x="192.774" y="162.524" width="277.111" height="354.737" filterUnits="userSpaceOnUse" color-interpolation-filters="sRGB">
<feFlood flood-opacity="0" result="BackgroundImageFix"/>
<feColorMatrix in="SourceAlpha" type="matrix" values="0 0 0 0 0 0 0 0 0 0 0 0 0 0 0 0 0 0 127 0" result="hardAlpha"/>
<feOffset dy="4"/>
<feGaussianBlur stdDeviation="10"/>
<feComposite in2="hardAlpha" operator="out"/>
<feColorMatrix type="matrix" values="0 0 0 0 0.583333 0 0 0 0 0.583333 0 0 0 0 0.583333 0 0 0 0.25 0"/>
<feBlend mode="normal" in2="BackgroundImageFix" result="effect1_dropShadow_68_888"/>
<feBlend mode="normal" in="SourceGraphic" in2="effect1_dropShadow_68_888" result="shape"/>
</filter>
</defs>
</svg>
